<?xml version="1.0" encoding="utf-8"?>
<!-- Generator: Adobe Illustrator 16.0.0, SVG Export Plug-In . SVG Version: 6.00 Build 0)  -->
<!DOCTYPE svg PUBLIC "-//W3C//DTD SVG 1.1//EN" "http://www.w3.org/Graphics/SVG/1.1/DTD/svg11.dtd">
<svg version="1.1" id="Layer_1" xmlns="http://www.w3.org/2000/svg" xmlns:xlink="http://www.w3.org/1999/xlink" x="0px" y="0px"
	 width="128px" height="128px" viewBox="0 0 128 128" enable-background="new 0 0 128 128" xml:space="preserve">
<line fill="#2A589B" stroke="#2A589B" stroke-width="7" stroke-miterlimit="10" x1="17.732" y1="12.712" x2="17.732" y2="113.33"/>
<line fill="#2A589B" stroke="#2A589B" stroke-width="7" stroke-miterlimit="10" x1="104.732" y1="34.75" x2="104.732" y2="81"/>
<line fill="#2A589B" stroke="#2A589B" stroke-width="7" stroke-miterlimit="10" x1="90.667" y1="111" x2="17.732" y2="111"/>
<line fill="#2A589B" stroke="#2A589B" stroke-width="7" stroke-miterlimit="10" x1="85.25" y1="15" x2="18.107" y2="15"/>
<line fill="#2A589B" stroke="#2A589B" stroke-width="7" stroke-miterlimit="10" x1="106.301" y1="38.199" x2="83.176" y2="15.075"/>
<line fill="#2A589B" stroke="#2A589B" stroke-width="7" stroke-miterlimit="10" x1="83.176" y1="15.075" x2="83.176" y2="37.5"/>
<line fill="#2A589B" stroke="#2A589B" stroke-width="7" stroke-miterlimit="10" x1="105.602" y1="37.5" x2="80.833" y2="37.5"/>
<ellipse transform="matrix(0.7126 -0.7016 0.7016 0.7126 -28.7207 64.0561)" fill="none" stroke="#2A589B" stroke-width="7" stroke-miterlimit="10" cx="63.818" cy="67.081" rx="24.135" ry="24.791"/>
<path fill="#2A589B" d="M111.025,105.738c1.705,1.732,1.295,4.901-0.917,7.078l0,0c-2.21,2.178-5.386,2.539-7.091,0.806
	L78.322,88.54c-1.705-1.731-1.295-4.899,0.916-7.077l0,0c2.211-2.177,5.386-2.538,7.092-0.806L111.025,105.738z"/>
</svg>
