<?xml version="1.0" encoding="utf-8"?>
<!-- Generator: Adobe Illustrator 16.0.0, SVG Export Plug-In . SVG Version: 6.00 Build 0)  -->
<!DOCTYPE svg PUBLIC "-//W3C//DTD SVG 1.1//EN" "http://www.w3.org/Graphics/SVG/1.1/DTD/svg11.dtd">
<svg version="1.1" id="Layer_1" xmlns="http://www.w3.org/2000/svg" xmlns:xlink="http://www.w3.org/1999/xlink" x="0px" y="0px"
	 width="128px" height="128px" viewBox="0 0 128 128" enable-background="new 0 0 128 128" xml:space="preserve">
<rect x="41.771" y="41.333" fill="#2A589B" stroke="#000000" stroke-width="2.8878" stroke-miterlimit="10" width="42.083" height="22"/>
<path fill="#808285" stroke="#000000" stroke-width="3" stroke-miterlimit="10" d="M111.104,48.333H90.438v21h-55v-21H15.104
	c-2.761,0-5,2.239-5,5V97c0,2.762,2.239,5,5,5h96c2.762,0,5-2.238,5-5V53.333C116.104,50.572,113.866,48.333,111.104,48.333z
	 M108.434,97.667c-1.654,0-2.996-1.342-2.996-2.996c0-1.655,1.342-2.997,2.996-2.997c1.655,0,2.997,1.342,2.997,2.997
	C111.431,96.325,110.089,97.667,108.434,97.667z"/>
<rect x="47.25" y="11.25" fill="#FFFFFF" stroke="#000000" stroke-width="3" stroke-miterlimit="10" width="31.037" height="37"/>
<rect x="44.354" y="86" fill="#FFFFFF" stroke="#000000" stroke-width="3" stroke-miterlimit="10" width="37.5" height="25"/>
<line fill="none" stroke="#2A589B" stroke-width="2" stroke-miterlimit="10" x1="50" y1="92" x2="75" y2="92"/>
<line fill="none" stroke="#2A589B" stroke-width="2" stroke-miterlimit="10" x1="50" y1="98" x2="75" y2="98"/>
<line fill="none" stroke="#2A589B" stroke-width="2" stroke-miterlimit="10" x1="50" y1="104" x2="75" y2="104"/>
</svg>
